<?xml version="1.0" encoding="utf-8"?>
<svg xmlns="http://www.w3.org/2000/svg" xmlns:xlink="http://www.w3.org/1999/xlink" width="945" height="405" viewBox="0 0 3780 1620">
<defs>
  <clipPath id="clip070">
    <rect x="0" y="0" width="3780" height="1620"/>
  </clipPath>
</defs>
<path clip-path="url(#clip070)" d="M0 1620 L3780 1620 L3780 0 L0 0  Z" fill="#ffffff" fill-rule="evenodd" fill-opacity="1"/>
<defs>
  <clipPath id="clip071">
    <rect x="756" y="0" width="2647" height="1620"/>
  </clipPath>
</defs>
<path clip-path="url(#clip070)" d="M283.591 1501.69 L3748.5 1501.69 L3748.5 31.4961 L283.591 31.4961  Z" fill="#ffffff" fill-rule="evenodd" fill-opacity="1"/>
<defs>
  <clipPath id="clip072">
    <rect x="283" y="31" width="3466" height="1471"/>
  </clipPath>
</defs>
<polyline clip-path="url(#clip072)" style="stroke:#000000; stroke-linecap:round; stroke-linejoin:round; stroke-width:2; stroke-opacity:0.1; fill:none" points="926.904,1501.69 926.904,31.4961 "/>
<polyline clip-path="url(#clip072)" style="stroke:#000000; stroke-linecap:round; stroke-linejoin:round; stroke-width:2; stroke-opacity:0.1; fill:none" points="1570.22,1501.69 1570.22,31.4961 "/>
<polyline clip-path="url(#clip072)" style="stroke:#000000; stroke-linecap:round; stroke-linejoin:round; stroke-width:2; stroke-opacity:0.1; fill:none" points="2213.54,1501.69 2213.54,31.4961 "/>
<polyline clip-path="url(#clip072)" style="stroke:#000000; stroke-linecap:round; stroke-linejoin:round; stroke-width:2; stroke-opacity:0.1; fill:none" points="2856.86,1501.69 2856.86,31.4961 "/>
<polyline clip-path="url(#clip072)" style="stroke:#000000; stroke-linecap:round; stroke-linejoin:round; stroke-width:2; stroke-opacity:0.1; fill:none" points="3500.18,1501.69 3500.18,31.4961 "/>
<polyline clip-path="url(#clip070)" style="stroke:#000000; stroke-linecap:round; stroke-linejoin:round; stroke-width:4; stroke-opacity:1; fill:none" points="283.591,1501.69 3748.5,1501.69 "/>
<polyline clip-path="url(#clip070)" style="stroke:#000000; stroke-linecap:round; stroke-linejoin:round; stroke-width:4; stroke-opacity:1; fill:none" points="926.904,1501.69 926.904,1482.8 "/>
<polyline clip-path="url(#clip070)" style="stroke:#000000; stroke-linecap:round; stroke-linejoin:round; stroke-width:4; stroke-opacity:1; fill:none" points="1570.22,1501.69 1570.22,1482.8 "/>
<polyline clip-path="url(#clip070)" style="stroke:#000000; stroke-linecap:round; stroke-linejoin:round; stroke-width:4; stroke-opacity:1; fill:none" points="2213.54,1501.69 2213.54,1482.8 "/>
<polyline clip-path="url(#clip070)" style="stroke:#000000; stroke-linecap:round; stroke-linejoin:round; stroke-width:4; stroke-opacity:1; fill:none" points="2856.86,1501.69 2856.86,1482.8 "/>
<polyline clip-path="url(#clip070)" style="stroke:#000000; stroke-linecap:round; stroke-linejoin:round; stroke-width:4; stroke-opacity:1; fill:none" points="3500.18,1501.69 3500.18,1482.8 "/>
<g clip-path="url(#clip070)">
<text style="fill:#000000; fill-opacity:1; font-family:Times New Roman,TimesNewRoman,Times,Baskerville,Georgia,serif; font-size:91px; text-anchor:middle;" transform="rotate(0, 926.904, 1607.57)" x="926.904" y="1607.57">100 k</text>
</g>
<g clip-path="url(#clip070)">
<text style="fill:#000000; fill-opacity:1; font-family:Times New Roman,TimesNewRoman,Times,Baskerville,Georgia,serif; font-size:91px; text-anchor:middle;" transform="rotate(0, 1570.22, 1607.57)" x="1570.22" y="1607.57">200 k</text>
</g>
<g clip-path="url(#clip070)">
<text style="fill:#000000; fill-opacity:1; font-family:Times New Roman,TimesNewRoman,Times,Baskerville,Georgia,serif; font-size:91px; text-anchor:middle;" transform="rotate(0, 2213.54, 1607.57)" x="2213.54" y="1607.57">300 k</text>
</g>
<g clip-path="url(#clip070)">
<text style="fill:#000000; fill-opacity:1; font-family:Times New Roman,TimesNewRoman,Times,Baskerville,Georgia,serif; font-size:91px; text-anchor:middle;" transform="rotate(0, 2856.86, 1607.57)" x="2856.86" y="1607.57">400 k</text>
</g>
<g clip-path="url(#clip070)">
<text style="fill:#000000; fill-opacity:1; font-family:Times New Roman,TimesNewRoman,Times,Baskerville,Georgia,serif; font-size:91px; text-anchor:middle;" transform="rotate(0, 3500.18, 1607.57)" x="3500.18" y="1607.57">500 k</text>
</g>
<polyline clip-path="url(#clip072)" style="stroke:#000000; stroke-linecap:round; stroke-linejoin:round; stroke-width:2; stroke-opacity:0.1; fill:none" points="283.591,1501.69 3748.5,1501.69 "/>
<polyline clip-path="url(#clip072)" style="stroke:#000000; stroke-linecap:round; stroke-linejoin:round; stroke-width:2; stroke-opacity:0.1; fill:none" points="283.591,1291.6 3748.5,1291.6 "/>
<polyline clip-path="url(#clip072)" style="stroke:#000000; stroke-linecap:round; stroke-linejoin:round; stroke-width:2; stroke-opacity:0.1; fill:none" points="283.591,1081.51 3748.5,1081.51 "/>
<polyline clip-path="url(#clip072)" style="stroke:#000000; stroke-linecap:round; stroke-linejoin:round; stroke-width:2; stroke-opacity:0.1; fill:none" points="283.591,871.412 3748.5,871.412 "/>
<polyline clip-path="url(#clip072)" style="stroke:#000000; stroke-linecap:round; stroke-linejoin:round; stroke-width:2; stroke-opacity:0.1; fill:none" points="283.591,661.318 3748.5,661.318 "/>
<polyline clip-path="url(#clip072)" style="stroke:#000000; stroke-linecap:round; stroke-linejoin:round; stroke-width:2; stroke-opacity:0.1; fill:none" points="283.591,451.225 3748.5,451.225 "/>
<polyline clip-path="url(#clip072)" style="stroke:#000000; stroke-linecap:round; stroke-linejoin:round; stroke-width:2; stroke-opacity:0.1; fill:none" points="283.591,241.131 3748.5,241.131 "/>
<polyline clip-path="url(#clip070)" style="stroke:#000000; stroke-linecap:round; stroke-linejoin:round; stroke-width:4; stroke-opacity:1; fill:none" points="283.591,1501.69 283.591,31.4961 "/>
<polyline clip-path="url(#clip070)" style="stroke:#000000; stroke-linecap:round; stroke-linejoin:round; stroke-width:4; stroke-opacity:1; fill:none" points="283.591,1501.69 302.489,1501.69 "/>
<polyline clip-path="url(#clip070)" style="stroke:#000000; stroke-linecap:round; stroke-linejoin:round; stroke-width:4; stroke-opacity:1; fill:none" points="283.591,1291.6 302.489,1291.6 "/>
<polyline clip-path="url(#clip070)" style="stroke:#000000; stroke-linecap:round; stroke-linejoin:round; stroke-width:4; stroke-opacity:1; fill:none" points="283.591,1081.51 302.489,1081.51 "/>
<polyline clip-path="url(#clip070)" style="stroke:#000000; stroke-linecap:round; stroke-linejoin:round; stroke-width:4; stroke-opacity:1; fill:none" points="283.591,871.412 302.489,871.412 "/>
<polyline clip-path="url(#clip070)" style="stroke:#000000; stroke-linecap:round; stroke-linejoin:round; stroke-width:4; stroke-opacity:1; fill:none" points="283.591,661.318 302.489,661.318 "/>
<polyline clip-path="url(#clip070)" style="stroke:#000000; stroke-linecap:round; stroke-linejoin:round; stroke-width:4; stroke-opacity:1; fill:none" points="283.591,451.225 302.489,451.225 "/>
<polyline clip-path="url(#clip070)" style="stroke:#000000; stroke-linecap:round; stroke-linejoin:round; stroke-width:4; stroke-opacity:1; fill:none" points="283.591,241.131 302.489,241.131 "/>
<g clip-path="url(#clip070)">
<text style="fill:#000000; fill-opacity:1; font-family:Times New Roman,TimesNewRoman,Times,Baskerville,Georgia,serif; font-size:91px; text-anchor:start;" transform="rotate(0, 28.3441, 1543.22)" x="28.3441" y="1543.22">10</text>
</g>
<g clip-path="url(#clip070)">
<text style="fill:#000000; fill-opacity:1; font-family:Times New Roman,TimesNewRoman,Times,Baskerville,Georgia,serif; font-size:74px; text-anchor:start;" transform="rotate(0, 119.704, 1495.25)" x="119.704" y="1495.25">−10</text>
</g>
<g clip-path="url(#clip070)">
<text style="fill:#000000; fill-opacity:1; font-family:Times New Roman,TimesNewRoman,Times,Baskerville,Georgia,serif; font-size:91px; text-anchor:start;" transform="rotate(0, 65.4589, 1333.12)" x="65.4589" y="1333.12">10</text>
</g>
<g clip-path="url(#clip070)">
<text style="fill:#000000; fill-opacity:1; font-family:Times New Roman,TimesNewRoman,Times,Baskerville,Georgia,serif; font-size:74px; text-anchor:start;" transform="rotate(0, 156.818, 1285.15)" x="156.818" y="1285.15">−8</text>
</g>
<g clip-path="url(#clip070)">
<text style="fill:#000000; fill-opacity:1; font-family:Times New Roman,TimesNewRoman,Times,Baskerville,Georgia,serif; font-size:91px; text-anchor:start;" transform="rotate(0, 65.4589, 1123.03)" x="65.4589" y="1123.03">10</text>
</g>
<g clip-path="url(#clip070)">
<text style="fill:#000000; fill-opacity:1; font-family:Times New Roman,TimesNewRoman,Times,Baskerville,Georgia,serif; font-size:74px; text-anchor:start;" transform="rotate(0, 156.818, 1075.06)" x="156.818" y="1075.06">−6</text>
</g>
<g clip-path="url(#clip070)">
<text style="fill:#000000; fill-opacity:1; font-family:Times New Roman,TimesNewRoman,Times,Baskerville,Georgia,serif; font-size:91px; text-anchor:start;" transform="rotate(0, 65.4589, 912.935)" x="65.4589" y="912.935">10</text>
</g>
<g clip-path="url(#clip070)">
<text style="fill:#000000; fill-opacity:1; font-family:Times New Roman,TimesNewRoman,Times,Baskerville,Georgia,serif; font-size:74px; text-anchor:start;" transform="rotate(0, 156.818, 864.967)" x="156.818" y="864.967">−4</text>
</g>
<g clip-path="url(#clip070)">
<text style="fill:#000000; fill-opacity:1; font-family:Times New Roman,TimesNewRoman,Times,Baskerville,Georgia,serif; font-size:91px; text-anchor:start;" transform="rotate(0, 65.4589, 702.842)" x="65.4589" y="702.842">10</text>
</g>
<g clip-path="url(#clip070)">
<text style="fill:#000000; fill-opacity:1; font-family:Times New Roman,TimesNewRoman,Times,Baskerville,Georgia,serif; font-size:74px; text-anchor:start;" transform="rotate(0, 156.818, 654.874)" x="156.818" y="654.874">−2</text>
</g>
<g clip-path="url(#clip070)">
<text style="fill:#000000; fill-opacity:1; font-family:Times New Roman,TimesNewRoman,Times,Baskerville,Georgia,serif; font-size:91px; text-anchor:start;" transform="rotate(0, 98.4168, 492.748)" x="98.4168" y="492.748">10</text>
</g>
<g clip-path="url(#clip070)">
<text style="fill:#000000; fill-opacity:1; font-family:Times New Roman,TimesNewRoman,Times,Baskerville,Georgia,serif; font-size:74px; text-anchor:start;" transform="rotate(0, 189.776, 444.78)" x="189.776" y="444.78">0</text>
</g>
<g clip-path="url(#clip070)">
<text style="fill:#000000; fill-opacity:1; font-family:Times New Roman,TimesNewRoman,Times,Baskerville,Georgia,serif; font-size:91px; text-anchor:start;" transform="rotate(0, 98.4168, 282.654)" x="98.4168" y="282.654">10</text>
</g>
<g clip-path="url(#clip070)">
<text style="fill:#000000; fill-opacity:1; font-family:Times New Roman,TimesNewRoman,Times,Baskerville,Georgia,serif; font-size:74px; text-anchor:start;" transform="rotate(0, 189.776, 234.686)" x="189.776" y="234.686">2</text>
</g>
<polyline clip-path="url(#clip072)" style="stroke:#000000; stroke-linecap:round; stroke-linejoin:round; stroke-width:16; stroke-opacity:1; fill:none" stroke-dasharray="64, 40" points="-3181.32,1396.65 7213.42,1396.65 "/>
<polyline clip-path="url(#clip072)" style="stroke:#1f77b4; stroke-linecap:round; stroke-linejoin:round; stroke-width:16; stroke-opacity:1; fill:none" points="374.003,74.8338 463.29,90.5638 554.943,104.454 647.845,115.6 739.853,147.689 833.662,166.32 924.009,200.785 1015.02,232.42 1104.11,277.201 1184.75,277.964 1253.5,312.308 1332.68,364.949 1411.7,413.837 1483.9,417.841 1546.67,473.282 1616.39,530.818 1683.15,574.801 1742.9,604.455 1801.5,636.249 1851.12,672.47 1997.86,674.889 2037.8,701.969 2081.94,723.819 2126.43,729.976 2168.49,754.081 2214.35,799.539 2259.95,812.452 2299.77,848.345 2332.87,849.946 2358.91,879.557 2394.66,922.279 2430.7,965.054 2459.56,968.832 2480.87,1003.92 2506.42,1012.54 2528.05,1050.18 2552.47,1101.92 2570.71,1115.47 2585.21,1161.83 2599.05,1203.43 2700.45,1210.48 2704.65,1220.09 2708.76,1223.42 2714.19,1217.8 2718.3,1214.01 2722.38,1180.26 2726.24,1174.82 2730.52,1165.91 2734.18,1156.26 2737.84,1153.92 2741.5,1152.58 2745.16,1151.99 2748.82,1151.8 2752.48,1151.78 2756.14,1151.78 2759.8,1151.77 "/>
<polyline clip-path="url(#clip072)" style="stroke:#2ba02b; stroke-linecap:round; stroke-linejoin:round; stroke-width:16; stroke-opacity:1; fill:none" points="383.1,74.8338 481.727,90.5638 582.42,104.454 684.469,115.6 785.67,147.689 888.376,166.32 987.904,200.785 1087.86,232.42 1186.01,277.218 1276.27,277.985 1354.79,312.308 1443.14,364.949 1531.38,413.809 1612.64,417.744 1684.62,473.282 1763.6,530.818 1839.81,574.802 1909.22,604.484 1977.28,650.706 2036.98,672.514 2202.32,674.962 2251.96,693.233 2305.55,723.483 2360.54,729.906 2412.37,754.155 2467.83,799.626 2523.44,812.536 2572.48,849.29 2618.9,850.838 2654.02,879.639 2695.99,922.354 2741.88,963.899 2778.98,967.808 2809.71,1006.41 2847.46,1046.43 2881.99,1056.66 2908.21,1107.31 2936.9,1155.81 2962.24,1211.49 2984.09,1224.98 3105.02,1231.56 3114.49,1237.15 3123.27,1248.79 3134.54,1273.83 3146.45,1295.58 3157.25,1302.31 3162.89,1304.95 3167.65,1327.4 3177.18,1325.55 3183,1324.59 3187.81,1324.27 3192.56,1322.29 3196.26,1319.08 3199.92,1318.21 "/>
<polyline clip-path="url(#clip072)" style="stroke:#d52628; stroke-linecap:round; stroke-linejoin:round; stroke-width:16; stroke-opacity:1; fill:none" stroke-dasharray="64, 40" points="337.096,74.8338 391.572,90.5638 449.445,104.454 509.911,115.6 570.589,147.689 635.127,166.32 697.49,200.784 762.909,223.868 816.729,232.796 869.9,277.761 936.458,312.308 1001.88,364.477 1065.82,368.659 1120.61,416.04 1184.79,438.128 1243.3,476.524 1307.05,533.808 1374.22,585.581 1438.83,607.637 1503.11,632.326 1631.17,648.528 1685.66,653.463 1737.96,668.611 1796.9,679.35 1854.67,713.494 1917.5,722.335 1978.09,779.216 2045.19,818.481 2105.98,819.816 2154.92,852.786 2215.31,892.916 2282.62,935.708 2351.03,964.439 2414.3,967.316 2468.92,980.34 2531.71,981.528 2596.37,982.824 2657.22,983.353 2717.55,983.164 2781.44,983.129 2909.81,983.176 2963.51,983.182 3016.08,983.191 3071.91,983.194 3133.53,983.176 3194.68,983.165 3255.19,983.185 3320.75,983.18 3384.75,983.18 3434.63,983.18 3493.94,983.181 "/>
<polyline clip-path="url(#clip072)" style="stroke:#e377c2; stroke-linecap:round; stroke-linejoin:round; stroke-width:16; stroke-opacity:1; fill:none" stroke-dasharray="64, 40" points="345.536,74.8338 408.292,90.5638 473.898,104.454 542.109,115.6 610.385,147.689 683.176,166.32 753.826,200.785 827.788,232.391 899.151,233.958 956.651,277.761 1026.13,312.308 1100.39,364.825 1174.04,372.86 1237.08,416.149 1307.91,473.161 1384.25,489.858 1450.35,533.826 1523.02,586.612 1596.21,608.195 1668.64,672.419 1816.26,674.84 1875.45,708.394 1942.38,722.869 2009.07,730.397 2076.07,741.529 2144.83,783.563 2217.71,806.476 2291.23,851.494 2365.58,879.418 2432.18,880.318 2490.47,923.609 2563.72,966.991 2639.36,1006.99 2713.28,1017.4 2777.23,1046.13 2846.49,1081.62 2918.73,1084.07 2984.93,1093.34 3058.22,1097.23 3132.53,1097.48 3279.35,1097.63 3340.77,1097.71 3402.69,1097.72 3467.49,1097.7 3535.35,1097.85 3605.28,1097.89 3674.42,1097.96 3748.5,1097.96 "/>
<polyline clip-path="url(#clip072)" style="stroke:#1f77b4; stroke-linecap:round; stroke-linejoin:round; stroke-width:16; stroke-opacity:1; fill:none" points="380.224,115.571 474.342,150.673 563.448,241.487 649.955,306.747 731.071,366.219 805.857,434.671 876.043,511.437 940.363,581.271 999.786,663.525 1052.07,711.524 1098.55,806.336 1141.51,869.418 1177.15,922.62 1205.71,999.601 1231.24,1085.69 1250.04,1189.6 1258.99,1278.91 1262.65,1305.44 1266.31,1297.83 1358.46,1269.59 1362.12,1267.58 1365.78,1266.21 "/>
<polyline clip-path="url(#clip072)" style="stroke:#2ba02b; stroke-linecap:round; stroke-linejoin:round; stroke-width:16; stroke-opacity:1; fill:none" points="389.108,115.571 492.445,150.673 590.641,241.487 686.624,306.747 777.191,366.219 861.35,434.671 941.102,511.437 1014.83,581.271 1083.67,663.525 1145.56,711.524 1202.16,806.336 1254.66,869.418 1299.73,922.62 1338.11,999.604 1373.45,1085.66 1402.95,1189.78 1425.23,1283.69 1438.96,1356.17 1445.95,1432.55 1547.47,1411.81 "/>
<polyline clip-path="url(#clip072)" style="stroke:#17becf; stroke-linecap:round; stroke-linejoin:round; stroke-width:16; stroke-opacity:1; fill:none" points="393.715,115.571 503.561,150.673 612.713,241.487 718.141,306.747 818.293,366.219 913.157,434.671 1003.66,511.437 1087.87,581.271 1166.86,663.525 1239.56,711.524 1307.46,806.336 1369.52,869.418 1425.69,922.62 1476.34,999.604 1522.19,1085.66 1560.95,1189.78 1591.92,1283.71 1614.63,1356.31 1631.58,1447.61 1748.97,1461.51 "/>
<polyline clip-path="url(#clip072)" style="stroke:#d52628; stroke-linecap:round; stroke-linejoin:round; stroke-width:16; stroke-opacity:1; fill:none" stroke-dasharray="64, 40" points="346.894,115.571 409.946,150.673 473.377,241.487 539.98,306.747 606.216,366.219 671.326,434.671 736.958,511.437 803.097,581.271 869.179,663.518 935.332,711.529 999.915,806.57 1067.82,869.149 1133.36,917.28 1197.35,960.161 1263.6,963.569 1330.38,963.607 1398.67,963.576 1466.63,963.584 1531.35,963.584 "/>
<polyline clip-path="url(#clip072)" style="stroke:#e377c2; stroke-linecap:round; stroke-linejoin:round; stroke-width:16; stroke-opacity:1; fill:none" stroke-dasharray="64, 40" points="355.173,115.571 426.717,150.673 498.235,241.487 573.181,306.747 647.716,366.219 721.344,434.671 795.32,511.437 869.803,581.271 944.435,663.525 1018.92,711.526 1091.72,806.342 1167.84,869.395 1241.82,922.76 1314.25,999.018 1388.99,1060.54 1464.19,1068.69 1540.71,1068.62 1616.99,1068.62 1692.35,1068.63 "/>
<polyline clip-path="url(#clip072)" style="stroke:#ff7e0d; stroke-linecap:round; stroke-linejoin:round; stroke-width:16; stroke-opacity:1; fill:none" stroke-dasharray="64, 40" points="374.46,115.571 465.464,150.673 555.915,241.487 650.09,306.747 743.7,366.219 836.454,434.671 929.767,511.437 1023.29,581.271 1116.83,663.525 1210.49,711.524 1302.32,806.336 1397.56,869.418 1490.59,922.62 1582.16,999.605 1676.07,1085.66 1769.98,1189.48 1865.84,1280.52 1961.14,1315.19 2055.51,1320.41 "/>
<path clip-path="url(#clip072)" d="M283.585 1428.27 L303.079 1428.27 L322.574 1428.27 L342.068 1428.27 L361.563 1428.27 L381.057 1428.27 L400.552 1428.27 L420.046 1428.27 L439.541 1428.27 L459.036 1428.27 L478.53 1428.27 L498.025 1428.27 L517.519 1428.27 L537.014 1428.27 L556.508 1428.27 L576.003 1428.27 L595.497 1428.27 L614.992 1428.27 L634.486 1428.27 L653.981 1428.27 L673.475 1428.27 L692.97 1428.27 L712.464 1428.27 L731.959 1428.27 L751.454 1428.27 L770.948 1428.27 L790.443 1428.27 L809.937 1428.27 L829.432 1428.27 L848.926 1428.27 L868.421 1428.27 L887.915 1428.27 L907.41 1428.27 L926.904 1428.27 L946.399 1428.27 L965.893 1428.27 L985.388 1428.27 L1004.88 1428.27 L1024.38 1428.27 L1043.87 1428.27 L1063.37 1428.27 L1082.86 1428.27 L1102.36 1428.27 L1121.85 1428.27 L1141.34 1428.27 L1160.84 1428.27 L1180.33 1428.27 L1199.83 1428.27 L1219.32 1428.27 L1238.82 1428.27 L1258.31 1428.27 L1277.81 1428.27 L1297.3 1428.27 L1316.79 1428.27 L1336.29 1428.27 L1355.78 1428.27 L1375.28 1428.27 L1394.77 1428.27 L1414.27 1428.27 L1433.76 1428.27 L1453.26 1428.27 L1472.75 1428.27 L1492.25 1428.27 L1511.74 1428.27 L1531.23 1428.27 L1550.73 1428.27 L1570.22 1428.27 L1589.72 1428.27 L1609.21 1428.27 L1628.71 1428.27 L1648.2 1428.27 L1667.7 1428.27 L1687.19 1428.27 L1706.69 1428.27 L1726.18 1428.27 L1745.67 1428.27 L1765.17 1428.27 L1784.66 1428.27 L1804.16 1428.27 L1823.65 1428.27 L1843.15 1428.27 L1862.64 1428.27 L1882.14 1428.27 L1901.63 1428.27 L1921.13 1428.27 L1940.62 1428.27 L1960.11 1428.27 L1979.61 1428.27 L1999.1 1428.27 L2018.6 1428.27 L2038.09 1428.27 L2057.59 1428.27 L2077.08 1428.27 L2096.58 1428.27 L2116.07 1428.27 L2135.57 1428.27 L2155.06 1428.27 L2174.55 1428.27 L2194.05 1428.27 L2213.54 1428.27 L2213.54 1205.89 L2194.05 1193.82 L2174.55 1181.76 L2155.06 1169.69 L2135.57 1157.62 L2116.07 1145.55 L2096.58 1133.48 L2077.08 1121.4 L2057.59 1109.33 L2038.09 1097.25 L2018.6 1085.18 L1999.1 1073.1 L1979.61 1061.02 L1960.11 1048.94 L1940.62 1036.86 L1921.13 1024.77 L1901.63 1012.69 L1882.14 1000.6 L1862.64 988.512 L1843.15 976.422 L1823.65 964.331 L1804.16 952.238 L1784.66 940.144 L1765.17 928.048 L1745.67 915.95 L1726.18 903.851 L1706.69 891.751 L1687.19 879.648 L1667.7 867.544 L1648.2 855.438 L1628.71 843.331 L1609.21 831.222 L1589.72 819.111 L1570.22 806.998 L1550.73 794.883 L1531.23 782.767 L1511.74 770.648 L1492.25 758.528 L1472.75 746.406 L1453.26 734.281 L1433.76 722.155 L1414.27 710.027 L1394.77 697.896 L1375.28 685.764 L1355.78 673.629 L1336.29 661.492 L1316.79 649.353 L1297.3 637.211 L1277.81 625.067 L1258.31 612.921 L1238.82 600.773 L1219.32 588.621 L1199.83 576.468 L1180.33 564.312 L1160.84 552.153 L1141.34 539.991 L1121.85 527.827 L1102.36 515.66 L1082.86 503.489 L1063.37 491.316 L1043.87 479.14 L1024.38 466.961 L1004.88 454.779 L985.388 442.593 L965.893 430.404 L946.399 418.211 L926.904 406.015 L907.41 393.815 L887.915 381.612 L868.421 369.404 L848.926 357.192 L829.432 344.976 L809.937 332.756 L790.443 320.531 L770.948 308.302 L751.454 296.067 L731.959 283.828 L712.464 271.583 L692.97 259.333 L673.475 247.077 L653.981 234.814 L634.486 222.545 L614.992 210.27 L595.497 197.987 L576.003 185.696 L556.508 173.398 L537.014 161.09 L517.519 148.773 L498.025 136.446 L478.53 124.107 L459.036 111.756 L439.541 99.3917 L420.046 87.0116 L400.552 74.6136 L381.057 62.1949 L361.563 49.7512 L342.068 37.276 L322.574 24.7583 L303.079 12.175 L283.585 -0.584688  Z" fill="#808080" fill-rule="evenodd" fill-opacity="0.35"/>
<polyline clip-path="url(#clip072)" style="stroke:#808080; stroke-linecap:round; stroke-linejoin:round; stroke-width:4; stroke-opacity:1; fill:none" points="283.585,1428.27 303.079,1428.27 322.574,1428.27 342.068,1428.27 361.563,1428.27 381.057,1428.27 400.552,1428.27 420.046,1428.27 439.541,1428.27 459.036,1428.27 478.53,1428.27 498.025,1428.27 517.519,1428.27 537.014,1428.27 556.508,1428.27 576.003,1428.27 595.497,1428.27 614.992,1428.27 634.486,1428.27 653.981,1428.27 673.475,1428.27 692.97,1428.27 712.464,1428.27 731.959,1428.27 751.454,1428.27 770.948,1428.27 790.443,1428.27 809.937,1428.27 829.432,1428.27 848.926,1428.27 868.421,1428.27 887.915,1428.27 907.41,1428.27 926.904,1428.27 946.399,1428.27 965.893,1428.27 985.388,1428.27 1004.88,1428.27 1024.38,1428.27 1043.87,1428.27 1063.37,1428.27 1082.86,1428.27 1102.36,1428.27 1121.85,1428.27 1141.34,1428.27 1160.84,1428.27 1180.33,1428.27 1199.83,1428.27 1219.32,1428.27 1238.82,1428.27 1258.31,1428.27 1277.81,1428.27 1297.3,1428.27 1316.79,1428.27 1336.29,1428.27 1355.78,1428.27 1375.28,1428.27 1394.77,1428.27 1414.27,1428.27 1433.76,1428.27 1453.26,1428.27 1472.75,1428.27 1492.25,1428.27 1511.74,1428.27 1531.23,1428.27 1550.73,1428.27 1570.22,1428.27 1589.72,1428.27 1609.21,1428.27 1628.71,1428.27 1648.2,1428.27 1667.7,1428.27 1687.19,1428.27 1706.69,1428.27 1726.18,1428.27 1745.67,1428.27 1765.17,1428.27 1784.66,1428.27 1804.16,1428.27 1823.65,1428.27 1843.15,1428.27 1862.64,1428.27 1882.14,1428.27 1901.63,1428.27 1921.13,1428.27 1940.62,1428.27 1960.11,1428.27 1979.61,1428.27 1999.1,1428.27 2018.6,1428.27 2038.09,1428.27 2057.59,1428.27 2077.08,1428.27 2096.58,1428.27 2116.07,1428.27 2135.57,1428.27 2155.06,1428.27 2174.55,1428.27 2194.05,1428.27 2213.54,1428.27 "/>
<path clip-path="url(#clip070)" d="M638.146 587.005 L643.622 593.531 L619.47 627.697 L657.281 609.809 L663.738 617.505 L639.587 651.671 L677.398 633.783 L682.873 640.309 L634.433 663.247 L627.976 655.551 L653.361 619.686 L613.602 638.422 L607.145 630.726 L638.146 587.005 Z" fill="#000000" fill-rule="nonzero" fill-opacity="1" /><path clip-path="url(#clip070)" d="M714.135 650.701 L719.194 656.73 L644.032 688.372 L638.973 682.343 L714.135 650.701 Z" fill="#000000" fill-rule="nonzero" fill-opacity="1" /><path clip-path="url(#clip070)" d="M744.548 686.946 L750.56 694.11 L728.181 712.887 L770.498 717.871 L778.235 727.092 L731.5 721.524 L726.863 773.401 L718.947 763.967 L723.11 717.143 L697.611 738.539 L691.599 731.375 L744.548 686.946 Z" fill="#000000" fill-rule="nonzero" fill-opacity="1" /><path clip-path="url(#clip070)" d="M778.292 791.045 L775.1 793.723 L749.924 763.72 Q743.543 769.8 743.032 776.393 Q742.586 782.992 748.032 789.482 Q751.186 793.241 755.055 795.979 Q758.953 798.751 763.713 800.679 L757.542 805.857 Q753.107 803.596 749.231 800.563 Q745.356 797.529 742.172 793.734 Q734.197 784.23 735.057 774.019 Q735.948 763.845 745.381 755.929 Q755.134 747.745 765.248 748.203 Q775.427 748.666 782.927 757.603 Q789.652 765.618 788.373 774.609 Q787.158 783.605 778.292 791.045 M774.732 782.913 Q780.027 778.348 780.749 772.726 Q781.501 767.14 777.454 762.317 Q772.871 756.855 767.018 756.146 Q761.195 755.472 755.175 759.677 L774.732 782.913 Z" fill="#000000" fill-rule="nonzero" fill-opacity="1" /><path clip-path="url(#clip070)" d="M818.721 814.595 Q818.437 812.96 817.62 811.409 Q816.868 809.865 815.558 808.304 Q810.916 802.772 804.799 802.828 Q798.747 802.89 792.009 808.544 L771.084 826.102 L765.579 819.541 L805.3 786.211 L810.805 792.772 L804.634 797.95 Q809.978 796.972 814.483 798.812 Q819.024 800.622 822.982 805.339 Q823.547 806.013 824.125 806.918 Q824.739 807.793 825.394 808.935 L818.721 814.595 Z" fill="#000000" fill-rule="nonzero" fill-opacity="1" /><path clip-path="url(#clip070)" d="M845.819 803.098 L851.324 809.659 L818.732 837.007 L852.199 842.104 L859.192 850.438 L822.932 844.965 L820.216 884.654 L813.074 876.143 L815.54 839.685 L796.141 855.963 L790.636 849.402 L845.819 803.098 Z" fill="#000000" fill-rule="nonzero" fill-opacity="1" /><path clip-path="url(#clip070)" d="M873.966 905.064 L870.774 907.743 L845.598 877.739 Q839.217 883.819 838.706 890.412 Q838.26 897.011 843.706 903.501 Q846.86 907.261 850.728 909.998 Q854.626 912.771 859.387 914.699 L853.216 919.877 Q848.78 917.616 844.905 914.582 Q841.03 911.548 837.846 907.754 Q829.871 898.249 830.731 888.039 Q831.621 877.864 841.055 869.948 Q850.808 861.765 860.922 862.222 Q871.101 862.686 878.6 871.623 Q885.326 879.638 884.046 888.628 Q882.832 897.625 873.966 905.064 M870.405 896.932 Q875.701 892.367 876.423 886.746 Q877.174 881.159 873.127 876.336 Q868.544 870.874 862.691 870.165 Q856.868 869.491 850.848 873.697 L870.405 896.932 Z" fill="#000000" fill-rule="nonzero" fill-opacity="1" /><path clip-path="url(#clip070)" d="M914.395 928.614 Q914.111 926.979 913.294 925.429 Q912.541 923.884 911.232 922.324 Q906.59 916.791 900.473 916.848 Q894.421 916.91 887.682 922.564 L866.758 940.121 L861.253 933.56 L900.973 900.231 L906.479 906.792 L900.308 911.97 Q905.651 910.991 910.157 912.831 Q914.697 914.642 918.655 919.358 Q919.221 920.032 919.799 920.937 Q920.412 921.812 921.068 922.954 L914.395 928.614 Z" fill="#000000" fill-rule="nonzero" fill-opacity="1" /><path clip-path="url(#clip070)" d="M1995.51 435.523 L2003.23 439.123 L1995.78 480.295 L2022.49 448.104 L2031.6 452.35 L2024.15 493.521 L2050.86 461.33 L2058.58 464.93 L2024.37 506.191 L2015.26 501.945 L2023.11 458.712 L1995 492.495 L1985.89 488.25 L1995.51 435.523 Z" fill="#000000" fill-rule="nonzero" fill-opacity="1" /><path clip-path="url(#clip070)" d="M2091.3 461.137 L2098.43 464.463 L2043.69 524.905 L2036.55 521.579 L2091.3 461.137 Z" fill="#000000" fill-rule="nonzero" fill-opacity="1" /><path clip-path="url(#clip070)" d="M2114.92 497.793 Q2108.71 494.898 2102.83 498.082 Q2096.97 501.225 2093.04 509.659 Q2089.11 518.092 2090.41 524.622 Q2091.76 531.13 2098.02 534.046 Q2104.18 536.922 2110.06 533.737 Q2115.94 530.553 2119.85 522.161 Q2123.75 513.811 2122.41 507.261 Q2121.09 500.67 2114.92 497.793 M2117.97 491.248 Q2128.04 495.944 2130.74 505.17 Q2133.43 514.396 2128.03 525.976 Q2122.65 537.515 2113.83 541.422 Q2105.03 545.287 2094.96 540.591 Q2084.85 535.876 2082.16 526.65 Q2079.52 517.401 2084.9 505.863 Q2090.3 494.282 2099.06 490.398 Q2107.86 486.533 2117.97 491.248 Z" fill="#000000" fill-rule="nonzero" fill-opacity="1" /><path clip-path="url(#clip070)" d="M2186.76 505.648 L2195.23 509.6 L2182.89 536.076 L2223.34 522.709 L2234.25 527.796 L2189.55 542.501 L2207.27 591.477 L2196.11 586.273 L2180.09 542.076 L2166.02 572.244 L2157.55 568.292 L2186.76 505.648 Z" fill="#000000" fill-rule="nonzero" fill-opacity="1" /><path clip-path="url(#clip070)" d="M2261.33 585.734 L2259.57 589.51 L2224.08 572.957 Q2220.86 581.164 2223.18 587.356 Q2225.57 593.525 2233.25 597.105 Q2237.7 599.179 2242.36 600.025 Q2247.06 600.891 2252.19 600.627 L2248.79 607.927 Q2243.81 607.753 2239.02 606.641 Q2234.22 605.529 2229.73 603.436 Q2218.49 598.192 2214.95 588.575 Q2211.46 578.977 2216.67 567.816 Q2222.05 556.278 2231.41 552.418 Q2240.83 548.536 2251.4 553.466 Q2260.88 557.888 2263.52 566.577 Q2266.22 575.244 2261.33 585.734 M2254.67 579.868 Q2257.54 573.493 2255.82 568.093 Q2254.14 562.712 2248.43 560.051 Q2241.97 557.038 2236.37 558.869 Q2230.8 560.719 2227.13 567.075 L2254.67 579.868 Z" fill="#000000" fill-rule="nonzero" fill-opacity="1" /><path clip-path="url(#clip070)" d="M2307.93 589.991 Q2306.98 588.629 2305.58 587.569 Q2304.25 586.487 2302.4 585.626 Q2295.86 582.574 2290.34 585.21 Q2284.88 587.824 2281.16 595.796 L2269.62 620.552 L2261.85 616.932 L2283.77 569.939 L2291.53 573.558 L2288.13 580.859 Q2292.56 577.714 2297.42 577.478 Q2302.3 577.199 2307.88 579.802 Q2308.67 580.173 2309.58 580.749 Q2310.51 581.283 2311.58 582.041 L2307.93 589.991 Z" fill="#000000" fill-rule="nonzero" fill-opacity="1" /><path clip-path="url(#clip070)" d="M2327.63 568.119 L2335.39 571.739 L2317.41 610.298 L2349.89 600.774 L2359.75 605.372 L2324.58 615.736 L2338.89 652.855 L2328.82 648.159 L2315.65 614.075 L2304.95 637.026 L2297.18 633.406 L2327.63 568.119 Z" fill="#000000" fill-rule="nonzero" fill-opacity="1" /><path clip-path="url(#clip070)" d="M2396.23 648.637 L2394.47 652.413 L2358.97 635.861 Q2355.76 644.067 2358.08 650.259 Q2360.47 656.428 2368.14 660.009 Q2372.59 662.083 2377.25 662.929 Q2381.96 663.794 2387.09 663.53 L2383.68 670.831 Q2378.71 670.656 2373.91 669.544 Q2369.12 668.432 2364.63 666.339 Q2353.39 661.095 2349.85 651.478 Q2346.36 641.88 2351.56 630.719 Q2356.94 619.181 2366.3 615.321 Q2375.72 611.439 2386.3 616.37 Q2395.78 620.791 2398.42 629.481 Q2401.12 638.147 2396.23 648.637 M2389.57 642.771 Q2392.44 636.396 2390.71 630.996 Q2389.04 625.615 2383.33 622.954 Q2376.87 619.941 2371.26 621.772 Q2365.7 623.622 2362.02 629.978 L2389.57 642.771 Z" fill="#000000" fill-rule="nonzero" fill-opacity="1" /><path clip-path="url(#clip070)" d="M2442.82 652.894 Q2441.88 651.532 2440.48 650.472 Q2439.14 649.39 2437.3 648.53 Q2430.75 645.477 2425.23 648.114 Q2419.77 650.727 2416.06 658.7 L2404.51 683.455 L2396.75 679.835 L2418.66 632.842 L2426.43 636.462 L2423.02 643.762 Q2427.45 640.617 2432.31 640.381 Q2437.19 640.103 2442.77 642.705 Q2443.57 643.077 2444.48 643.653 Q2445.4 644.186 2446.48 644.944 L2442.82 652.894 Z" fill="#000000" fill-rule="nonzero" fill-opacity="1" /></svg>
